<svg width="31" height="17" viewBox="0 0 31 17" fill="none" xmlns="http://www.w3.org/2000/svg">
<path fill-rule="evenodd" clip-rule="evenodd" d="M15.1666 2.49998C15.1666 2.39871 15.1435 2.29879 15.099 2.20778C15.0546 2.11677 14.9901 2.03708 14.9103 1.97475C14.8305 1.91242 14.7375 1.86909 14.6384 1.84805C14.5394 1.82701 14.4368 1.82881 14.3386 1.85331L6.33859 3.85331C6.1943 3.8893 6.06618 3.9725 5.97462 4.08967C5.88305 4.20685 5.83329 4.35127 5.83325 4.49998V11.4273C5.41063 11.2524 4.9573 11.1638 4.49992 11.1666C3.83459 11.1666 3.20192 11.3453 2.71592 11.6693C2.23459 11.9893 1.83325 12.506 1.83325 13.1666C1.83325 13.8266 2.23459 14.3433 2.71592 14.664C3.20192 14.988 3.83459 15.1666 4.49992 15.1666C5.16525 15.1666 5.79792 14.988 6.28392 14.664C6.76392 14.344 7.16592 13.828 7.16659 13.1686V7.68664L13.8333 6.01998V9.42731C13.4106 9.25241 12.9573 9.16378 12.4999 9.16664C11.8346 9.16664 11.2019 9.34531 10.7159 9.66931C10.2346 9.98931 9.83325 10.506 9.83325 11.1666C9.83325 11.8266 10.2346 12.3433 10.7159 12.664C11.2019 12.988 11.8346 13.1666 12.4999 13.1666C13.1653 13.1666 13.7979 12.988 14.2839 12.664C14.7639 12.344 15.1659 11.828 15.1666 11.1686V2.49998Z" fill="white"/>
<path d="M25.5 3.5V13.5" stroke="white"/>
<path d="M20.5 8.5L30.5 8.5" stroke="white"/>
</svg>
