<svg width="25" height="26" viewBox="0 0 25 26" fill="none" xmlns="http://www.w3.org/2000/svg">
<path d="M1.5 13.5V23.5L5.5 21.5V11.5L1.5 13.5Z" fill="#FFB800" stroke="#FFB800"/>
<path d="M19 9V19L23 17V7L19 9Z" fill="#FFB800" stroke="#FFB800"/>
<path d="M9.00004 21H15V13H9L9.00004 21Z" fill="#FFB800" stroke="#FFB800"/>
<mask id="path-4-inside-1" fill="white">
<rect width="8.02596" height="13.0422" rx="1" transform="matrix(0.866025 -0.5 2.20305e-08 1 0 12.958)"/>
</mask>
<rect width="8.02596" height="13.0422" rx="1" transform="matrix(0.866025 -0.5 2.20305e-08 1 0 12.958)" stroke="white" stroke-width="4" mask="url(#path-4-inside-1)"/>
<mask id="path-5-inside-2" fill="white">
<rect width="8.02596" height="13.0422" rx="1" transform="matrix(0.866025 -0.5 2.20305e-08 1 17.0552 8.94482)"/>
</mask>
<rect width="8.02596" height="13.0422" rx="1" transform="matrix(0.866025 -0.5 2.20305e-08 1 17.0552 8.94482)" stroke="white" stroke-width="4" mask="url(#path-5-inside-2)"/>
<path d="M9.02588 12.5663L10.165 13.5028C10.5229 13.797 10.9718 13.9578 11.4351 13.9578H15.0518L15.0518 20.987H9.02588L9.02588 12.5663Z" stroke="white" stroke-width="2"/>
<mask id="path-7-outside-3" maskUnits="userSpaceOnUse" x="3.01636" y="0" width="18" height="18" fill="black">
<rect fill="white" x="3.01636" width="18" height="18"/>
<path d="M18.0585 8.52109C18.0585 10.2506 17.3715 11.9093 16.1486 13.1322C14.9256 14.3551 13.267 15.0422 11.5375 15.0422C9.80795 15.0422 8.14928 14.3551 6.92634 13.1322C5.7034 11.9093 5.01636 10.2506 5.01636 8.52109C5.01636 6.79159 5.7034 5.13293 6.92634 3.90998C8.14928 2.68704 9.80795 2 11.5375 2C13.267 2 14.9256 2.68704 16.1486 3.90998C17.3715 5.13293 18.0585 6.79159 18.0585 8.52109ZM11.5375 5.26055C11.4344 5.26061 11.3326 5.28224 11.2384 5.32407C11.1442 5.36589 11.0599 5.42698 10.9908 5.50339C10.9217 5.57979 10.8693 5.66983 10.8371 5.7677C10.8049 5.86557 10.7936 5.96909 10.8038 6.07161L11.0891 8.93029C11.0987 9.0426 11.1501 9.14721 11.2331 9.22345C11.3161 9.29968 11.4247 9.34198 11.5375 9.34198C11.6502 9.34198 11.7588 9.29968 11.8418 9.22345C11.9248 9.14721 11.9762 9.0426 11.9858 8.93029L12.2711 6.07161C12.2813 5.96909 12.27 5.86557 12.2378 5.7677C12.2056 5.66983 12.1532 5.57979 12.0841 5.50339C12.015 5.42698 11.9307 5.36589 11.8365 5.32407C11.7424 5.28224 11.6405 5.26061 11.5375 5.26055ZM11.5391 10.1514C11.3229 10.1514 11.1156 10.2372 10.9627 10.3901C10.8098 10.543 10.7239 10.7503 10.7239 10.9665C10.7239 11.1827 10.8098 11.39 10.9627 11.5429C11.1156 11.6958 11.3229 11.7816 11.5391 11.7816C11.7553 11.7816 11.9626 11.6958 12.1155 11.5429C12.2683 11.39 12.3542 11.1827 12.3542 10.9665C12.3542 10.7503 12.2683 10.543 12.1155 10.3901C11.9626 10.2372 11.7553 10.1514 11.5391 10.1514Z"/>
</mask>
<path d="M18.0585 8.52109C18.0585 10.2506 17.3715 11.9093 16.1486 13.1322C14.9256 14.3551 13.267 15.0422 11.5375 15.0422C9.80795 15.0422 8.14928 14.3551 6.92634 13.1322C5.7034 11.9093 5.01636 10.2506 5.01636 8.52109C5.01636 6.79159 5.7034 5.13293 6.92634 3.90998C8.14928 2.68704 9.80795 2 11.5375 2C13.267 2 14.9256 2.68704 16.1486 3.90998C17.3715 5.13293 18.0585 6.79159 18.0585 8.52109ZM11.5375 5.26055C11.4344 5.26061 11.3326 5.28224 11.2384 5.32407C11.1442 5.36589 11.0599 5.42698 10.9908 5.50339C10.9217 5.57979 10.8693 5.66983 10.8371 5.7677C10.8049 5.86557 10.7936 5.96909 10.8038 6.07161L11.0891 8.93029C11.0987 9.0426 11.1501 9.14721 11.2331 9.22345C11.3161 9.29968 11.4247 9.34198 11.5375 9.34198C11.6502 9.34198 11.7588 9.29968 11.8418 9.22345C11.9248 9.14721 11.9762 9.0426 11.9858 8.93029L12.2711 6.07161C12.2813 5.96909 12.27 5.86557 12.2378 5.7677C12.2056 5.66983 12.1532 5.57979 12.0841 5.50339C12.015 5.42698 11.9307 5.36589 11.8365 5.32407C11.7424 5.28224 11.6405 5.26061 11.5375 5.26055ZM11.5391 10.1514C11.3229 10.1514 11.1156 10.2372 10.9627 10.3901C10.8098 10.543 10.7239 10.7503 10.7239 10.9665C10.7239 11.1827 10.8098 11.39 10.9627 11.5429C11.1156 11.6958 11.3229 11.7816 11.5391 11.7816C11.7553 11.7816 11.9626 11.6958 12.1155 11.5429C12.2683 11.39 12.3542 11.1827 12.3542 10.9665C12.3542 10.7503 12.2683 10.543 12.1155 10.3901C11.9626 10.2372 11.7553 10.1514 11.5391 10.1514Z" fill="#FF0000"/>
<path d="M11.5375 15.0422V17.0422V15.0422ZM5.01636 8.52109H3.01636H5.01636ZM11.5375 2V0V2ZM10.8038 6.07161L12.7939 5.87299L12.7939 5.87271L10.8038 6.07161ZM11.0891 8.93029L13.0819 8.7602L13.0807 8.74593L13.0792 8.73168L11.0891 8.93029ZM11.9858 8.93029L9.99566 8.73168L9.99424 8.74593L9.99302 8.7602L11.9858 8.93029ZM12.2711 6.07161L10.281 5.87271L10.281 5.87299L12.2711 6.07161ZM16.0585 8.52109C16.0585 9.72016 15.5822 10.8701 14.7343 11.718L17.5628 14.5464C19.1608 12.9484 20.0585 10.781 20.0585 8.52109H16.0585ZM14.7343 11.718C13.8865 12.5659 12.7365 13.0422 11.5375 13.0422V17.0422C13.7974 17.0422 15.9648 16.1444 17.5628 14.5464L14.7343 11.718ZM11.5375 13.0422C10.3384 13.0422 9.18843 12.5659 8.34056 11.718L5.51213 14.5464C7.11014 16.1444 9.27752 17.0422 11.5375 17.0422V13.0422ZM8.34056 11.718C7.49269 10.8701 7.01636 9.72016 7.01636 8.52109H3.01636C3.01636 10.781 3.91411 12.9484 5.51213 14.5464L8.34056 11.718ZM7.01636 8.52109C7.01636 7.32203 7.49269 6.17207 8.34056 5.3242L5.51213 2.49577C3.91411 4.09379 3.01636 6.26116 3.01636 8.52109H7.01636ZM8.34056 5.3242C9.18843 4.47633 10.3384 4 11.5375 4V0C9.27752 0 7.11014 0.897756 5.51213 2.49577L8.34056 5.3242ZM11.5375 4C12.7365 4 13.8865 4.47633 14.7343 5.3242L17.5628 2.49577C15.9648 0.897756 13.7974 0 11.5375 0V4ZM14.7343 5.3242C15.5822 6.17207 16.0585 7.32203 16.0585 8.52109H20.0585C20.0585 6.26116 19.1608 4.09379 17.5628 2.49577L14.7343 5.3242ZM11.5363 3.26055C11.154 3.26076 10.7759 3.34107 10.4265 3.49629L12.0503 7.15185C11.8892 7.22342 11.7149 7.26045 11.5386 7.26055L11.5363 3.26055ZM10.4265 3.49629C10.0771 3.6515 9.76401 3.8782 9.50753 4.16175L12.474 6.84502C12.3558 6.97576 12.2114 7.08028 12.0503 7.15185L10.4265 3.49629ZM9.50753 4.16175C9.25104 4.44531 9.0568 4.77945 8.9373 5.14265L12.7369 6.39274C12.6818 6.56021 12.5923 6.71427 12.474 6.84502L9.50753 4.16175ZM8.9373 5.14265C8.81781 5.50585 8.77572 5.89005 8.81374 6.2705L12.7939 5.87271C12.8114 6.04813 12.792 6.22528 12.7369 6.39274L8.9373 5.14265ZM8.81372 6.27022L9.09901 9.12891L13.0792 8.73168L12.7939 5.87299L8.81372 6.27022ZM9.09637 9.10039C9.14857 9.71187 9.42835 10.2815 9.88038 10.6966L12.5859 7.75032C12.8718 8.01294 13.0489 8.37333 13.0819 8.7602L9.09637 9.10039ZM9.88038 10.6966C10.3324 11.1117 10.9238 11.342 11.5375 11.342V7.34198C11.9257 7.34198 12.2999 7.4877 12.5859 7.75032L9.88038 10.6966ZM11.5375 11.342C12.1511 11.342 12.7425 11.1117 13.1945 10.6966L10.489 7.75032C10.775 7.4877 11.1492 7.34198 11.5375 7.34198V11.342ZM13.1945 10.6966C13.6466 10.2815 13.9263 9.71187 13.9785 9.10039L9.99302 8.7602C10.026 8.37333 10.2031 8.01294 10.489 7.75032L13.1945 10.6966ZM13.9759 9.12891L14.2612 6.27022L10.281 5.87299L9.99566 8.73168L13.9759 9.12891ZM14.2612 6.2705C14.2992 5.89005 14.2571 5.50585 14.1376 5.14265L10.338 6.39274C10.2829 6.22528 10.2635 6.04813 10.281 5.87271L14.2612 6.2705ZM14.1376 5.14265C14.0181 4.77946 13.8239 4.44532 13.5674 4.16175L10.6009 6.84502C10.4826 6.71427 10.3931 6.5602 10.338 6.39274L14.1376 5.14265ZM13.5674 4.16175C13.3109 3.8782 12.9979 3.65151 12.6484 3.49629L11.0246 7.15185C10.8635 7.08028 10.7191 6.97576 10.6009 6.84502L13.5674 4.16175ZM12.6484 3.49629C12.299 3.34107 11.9209 3.26076 11.5386 3.26055L11.5363 7.26055C11.36 7.26045 11.1857 7.22342 11.0246 7.15185L12.6484 3.49629ZM11.5391 8.15137C10.7925 8.15137 10.0764 8.44796 9.54848 8.9759L12.3769 11.8043C12.1547 12.0265 11.8533 12.1514 11.5391 12.1514V8.15137ZM9.54848 8.9759C9.02054 9.50384 8.72395 10.2199 8.72395 10.9665H12.7239C12.7239 11.2808 12.5991 11.5821 12.3769 11.8043L9.54848 8.9759ZM8.72395 10.9665C8.72395 11.7131 9.02054 12.4292 9.54848 12.9571L12.3769 10.1287C12.5991 10.3509 12.7239 10.6523 12.7239 10.9665H8.72395ZM9.54848 12.9571C10.0764 13.485 10.7925 13.7816 11.5391 13.7816V9.78164C11.8533 9.78164 12.1547 9.90648 12.3769 10.1287L9.54848 12.9571ZM11.5391 13.7816C12.2857 13.7816 13.0017 13.485 13.5297 12.9571L10.7013 10.1287C10.9235 9.90648 11.2248 9.78164 11.5391 9.78164V13.7816ZM13.5297 12.9571C14.0576 12.4292 14.3542 11.7131 14.3542 10.9665H10.3542C10.3542 10.6523 10.4791 10.3509 10.7013 10.1287L13.5297 12.9571ZM14.3542 10.9665C14.3542 10.2199 14.0576 9.50384 13.5297 8.9759L10.7013 11.8043C10.4791 11.5821 10.3542 11.2808 10.3542 10.9665H14.3542ZM13.5297 8.9759C13.0017 8.44796 12.2857 8.15137 11.5391 8.15137V12.1514C11.2248 12.1514 10.9235 12.0265 10.7013 11.8043L13.5297 8.9759Z" fill="#75CFB8" mask="url(#path-7-outside-3)"/>
</svg>
