<svg width="21" height="21" viewBox="0 0 21 21" fill="none" xmlns="http://www.w3.org/2000/svg">
<path d="M10.25 3.8335C6.56748 3.8335 3.58331 6.8185 3.58331 10.5002C3.58331 14.1818 6.56748 17.1668 10.25 17.1668C13.9325 17.1668 16.9166 14.1818 16.9166 10.5002C16.9166 6.8185 13.9325 3.8335 10.25 3.8335ZM13.3391 12.411C13.4954 12.5673 13.5832 12.7792 13.5832 13.0002C13.5832 13.2211 13.4954 13.4331 13.3391 13.5893C13.1829 13.7456 12.971 13.8334 12.75 13.8334C12.529 13.8334 12.3171 13.7456 12.1608 13.5893L10.25 11.6785L8.33915 13.5893C8.26193 13.667 8.17013 13.7286 8.06902 13.7707C7.96791 13.8127 7.85949 13.8344 7.74998 13.8344C7.64047 13.8344 7.53205 13.8127 7.43094 13.7707C7.32982 13.7286 7.23802 13.667 7.16081 13.5893C7.08336 13.512 7.02191 13.4202 6.97998 13.3191C6.93806 13.218 6.91648 13.1096 6.91648 13.0002C6.91648 12.8907 6.93806 12.7823 6.97998 12.6813C7.02191 12.5802 7.08336 12.4883 7.16081 12.411L9.07165 10.5002L7.16081 8.58933C7.00456 8.43307 6.91677 8.22114 6.91677 8.00016C6.91677 7.77918 7.00456 7.56725 7.16081 7.411C7.31707 7.25474 7.529 7.16695 7.74998 7.16695C7.97096 7.16695 8.18289 7.25474 8.33915 7.411L10.25 9.32183L12.1608 7.411C12.3171 7.25474 12.529 7.16695 12.75 7.16695C12.971 7.16695 13.1829 7.25474 13.3391 7.411C13.4954 7.56725 13.5832 7.77918 13.5832 8.00016C13.5832 8.22114 13.4954 8.43307 13.3391 8.58933L11.4283 10.5002L13.3391 12.411Z" fill="#FFB800"/>
</svg>
