<svg width="25" height="25" viewBox="0 0 25 25" fill="none" xmlns="http://www.w3.org/2000/svg">
<path d="M25 12.5C25 15.8152 23.683 18.9946 21.3388 21.3388C18.9946 23.683 15.8152 25 12.5 25C9.18479 25 6.00537 23.683 3.66117 21.3388C1.31696 18.9946 0 15.8152 0 12.5C0 9.18479 1.31696 6.00537 3.66117 3.66117C6.00537 1.31696 9.18479 0 12.5 0C15.8152 0 18.9946 1.31696 21.3388 3.66117C23.683 6.00537 25 9.18479 25 12.5ZM12.5 6.25C12.3025 6.25011 12.1072 6.29159 11.9268 6.37176C11.7463 6.45194 11.5846 6.56902 11.4521 6.71549C11.3196 6.86195 11.2193 7.03454 11.1576 7.22214C11.0958 7.40973 11.0741 7.60818 11.0938 7.80469L11.6406 13.2844C11.659 13.4996 11.7575 13.7002 11.9166 13.8463C12.0758 13.9924 12.2839 14.0735 12.5 14.0735C12.7161 14.0735 12.9242 13.9924 13.0834 13.8463C13.2425 13.7002 13.341 13.4996 13.3594 13.2844L13.9062 7.80469C13.9259 7.60818 13.9041 7.40973 13.8424 7.22214C13.7807 7.03454 13.6804 6.86195 13.5479 6.71549C13.4154 6.56902 13.2537 6.45194 13.0732 6.37176C12.8928 6.29159 12.6975 6.25011 12.5 6.25ZM12.5031 15.625C12.0887 15.625 11.6913 15.7896 11.3983 16.0826C11.1052 16.3757 10.9406 16.7731 10.9406 17.1875C10.9406 17.6019 11.1052 17.9993 11.3983 18.2924C11.6913 18.5854 12.0887 18.75 12.5031 18.75C12.9175 18.75 13.315 18.5854 13.608 18.2924C13.901 17.9993 14.0656 17.6019 14.0656 17.1875C14.0656 16.7731 13.901 16.3757 13.608 16.0826C13.315 15.7896 12.9175 15.625 12.5031 15.625Z" fill="#FF0000"/>
</svg>
