<svg width="15" height="16" viewBox="0 0 15 16" fill="none" xmlns="http://www.w3.org/2000/svg">
<path d="M6.25 11.75C7.35936 11.7498 8.43675 11.3784 9.31063 10.695L12.0581 13.4425L12.9419 12.5588L10.1944 9.81125C10.8781 8.93729 11.2497 7.85965 11.25 6.75C11.25 3.99313 9.00688 1.75 6.25 1.75C3.49313 1.75 1.25 3.99313 1.25 6.75C1.25 9.50688 3.49313 11.75 6.25 11.75ZM6.25 3C8.31813 3 10 4.68187 10 6.75C10 8.81812 8.31813 10.5 6.25 10.5C4.18188 10.5 2.5 8.81812 2.5 6.75C2.5 4.68187 4.18188 3 6.25 3Z" fill="black"/>
</svg>
