<svg width="24" height="24" viewBox="0 0 24 24" fill="none" xmlns="http://www.w3.org/2000/svg">
<path fill-rule="evenodd" clip-rule="evenodd" d="M9.15124 0H9.9375H13.2636H14.0499L14.2354 0.764055L14.6598 2.51222L15.8595 3.00913L17.3957 2.07317L18.0672 1.66408L18.6231 2.22004L20.9751 4.57198L21.531 5.12795L21.122 5.79939L20.186 7.33561L20.6829 8.53528L22.431 8.95972L23.195 9.14523V9.93148V13.2576V14.0439L22.431 14.2294L20.6829 14.6538L20.186 15.8535L21.122 17.3898L21.5311 18.0612L20.9751 18.6172L18.6232 20.9691L18.0672 21.5251L17.3958 21.116L15.8595 20.18L14.6598 20.6769L14.2354 22.4251L14.0499 23.1892H13.2636H9.93751H9.15126L8.96575 22.4251L8.54127 20.6769L7.34161 20.18L5.80522 21.1161L5.13377 21.5251L4.57781 20.9692L2.22593 18.6173L1.66997 18.0613L2.07906 17.3899L3.01513 15.8535L2.51821 14.6538L0.769914 14.2294L0.00585938 14.0438V13.2576V9.93153V9.14528L0.769914 8.95977L2.51821 8.53528L3.01513 7.33561L2.07908 5.79927L1.66999 5.12782L2.22596 4.57186L4.57785 2.21996L5.13382 1.664L5.80526 2.07309L7.34161 3.00913L8.54127 2.51222L8.96573 0.764054L9.15124 0ZM10.7237 2L10.365 3.47767L10.2451 3.97124L9.77588 4.16561L7.63773 5.05126L7.16849 5.24563L6.73474 4.98136L5.4361 4.19014L4.19614 5.43011L4.98736 6.72875L5.25162 7.16249L5.05726 7.63173L4.1716 9.76989L3.97724 10.2391L3.48367 10.359L2.00586 10.7178V12.4713L3.48367 12.8301L3.97724 12.95L4.1716 13.4192L5.05726 15.5574L5.25162 16.0266L4.98736 16.4604L4.19611 17.7591L5.43606 18.999L6.73474 18.2078L7.16849 17.9435L7.63773 18.1379L9.77588 19.0235L10.2451 19.2179L10.365 19.7114L10.7238 21.1892H12.4773L12.8361 19.7114L12.956 19.2179L13.4252 19.0235L15.5634 18.1379L16.0326 17.9435L16.4664 18.2078L17.7649 18.9989L19.0049 17.7589L18.2138 16.4604L17.9495 16.0266L18.1439 15.5574L19.0295 13.4192L19.2239 12.95L19.7174 12.8301L21.195 12.4714V10.7177L19.7174 10.359L19.2239 10.2391L19.0295 9.76989L18.1439 7.63173L17.9495 7.16249L18.2138 6.72875L19.0049 5.43023L17.7649 4.19022L16.4664 4.98136L16.0326 5.24563L15.5634 5.05126L13.4252 4.16561L12.956 3.97124L12.8361 3.47767L12.4774 2H10.7237ZM7.06892 11.5946C7.06892 9.0919 9.09776 7.06306 11.6005 7.06306C14.1031 7.06306 16.132 9.0919 16.132 11.5946C16.132 14.0973 14.1031 16.1261 11.6005 16.1261C9.09776 16.1261 7.06892 14.0973 7.06892 11.5946ZM11.6005 9.06306C10.2023 9.06306 9.06892 10.1965 9.06892 11.5946C9.06892 12.9927 10.2023 14.1261 11.6005 14.1261C12.9986 14.1261 14.132 12.9927 14.132 11.5946C14.132 10.1965 12.9986 9.06306 11.6005 9.06306Z" fill="white"/>
</svg>
