<svg width="20" height="19" viewBox="0 0 20 19" fill="none" xmlns="http://www.w3.org/2000/svg">
<path fill-rule="evenodd" clip-rule="evenodd" d="M0.453333 0.973381C0.666668 0.673267 0.948531 0.428392 1.27551 0.259098C1.60248 0.0898038 1.96513 0.000978278 2.33333 0H14.3333C15.1133 0 15.7942 0.391686 16.2133 0.973381C16.4992 1.37173 16.6667 1.86259 16.6667 2.38928V10.9447C16.6667 12.2356 15.65 13.334 14.3333 13.334H2.33333C1.01667 13.334 0 12.2356 0 10.9447V2.38928C0 1.86259 0.166667 1.37173 0.453333 0.972547V0.973381ZM2.44417 1.66675L7.71667 7.4712C7.79477 7.55713 7.88998 7.6258 7.99617 7.67278C8.10237 7.71977 8.21721 7.74404 8.33333 7.74404C8.44946 7.74404 8.5643 7.71977 8.6705 7.67278C8.77669 7.6258 8.87189 7.55713 8.95 7.4712L14.2225 1.66675H2.44417ZM15 3.29016L10.1833 8.59209C9.94902 8.84989 9.66341 9.05588 9.34482 9.19684C9.02623 9.33779 8.68171 9.41061 8.33333 9.41061C7.98496 9.41061 7.64043 9.33779 7.32185 9.19684C7.00326 9.05588 6.71765 8.84989 6.48333 8.59209L1.66667 3.29016V10.9447C1.66667 11.3731 1.99333 11.6672 2.33333 11.6672H14.3333C14.6733 11.6672 15 11.3731 15 10.9447V3.29016Z" fill="black"/>
<rect x="8" y="8" width="12" height="10.875" rx="5" fill="white"/>
<path d="M17.1869 9.5L13.0631 14.9369L10.625 12.5006L9.5 13.6256L13.2494 17.375L18.5 10.625L17.1869 9.5Z" fill="black"/>
</svg>
