<svg width="1068" height="1108" viewBox="0 0 1068 1108" fill="none" xmlns="http://www.w3.org/2000/svg">
<g opacity="0.6" filter="url(#filter0_f)">
<circle cx="533.948" cy="573.445" r="333.948" fill="#FFD466"/>
</g>
<g opacity="0.77">
<path d="M589.699 789.243C589.834 741.861 523.638 703.263 441.846 703.03C360.054 702.797 293.64 741.019 293.505 788.4C293.37 835.782 359.566 874.38 441.358 874.613C523.15 874.846 589.565 836.624 589.699 789.243Z" fill="#AAB3C2"/>
<path d="M440.981 748.039L506.51 785.892V760.657L440.981 722.85V748.039Z" fill="#5E9949"/>
<path d="M440.981 722.85V748.039L353.578 798.51V773.275L440.981 722.85Z" fill="#35664D"/>
<path d="M549.245 759.551V798.648L440.705 861.414V822.225L549.245 759.551Z" fill="#35664D"/>
<path d="M332.165 759.551V798.648L440.705 861.414V822.225L332.165 759.551Z" fill="#5E9949"/>
<path d="M440.797 696.923L332.165 759.551L440.705 822.226L549.291 759.551L440.797 696.923ZM375.452 760.657L440.981 722.803L506.51 760.657L440.981 798.51L375.452 760.657Z" fill="#B0CC38"/>
<path d="M440.981 748.039L397.28 773.274L440.981 798.51L484.683 773.274L440.981 748.039Z" fill="#272911"/>
<path d="M467.229 359.237V776.313L441.487 791.187V374.111L467.229 359.237Z" fill="#383B18"/>
<path d="M415.791 359.237V776.313L441.487 791.187V374.111L415.791 359.237Z" fill="#54562C"/>
<path d="M415.791 359.237L441.533 344.409L467.229 359.237L441.487 374.111L415.791 359.237Z" fill="#616236"/>
<path d="M530.041 534.642V563.93L504.345 578.758V549.516L530.041 534.642Z" fill="#383B18"/>
<path d="M441.487 513.228L441.533 542.47L504.345 578.757V549.515L441.487 513.228Z" fill="#54562C"/>
<path d="M441.487 513.229L467.229 498.4L530.041 534.642L504.345 549.516L441.487 513.229Z" fill="#616236"/>
<path d="M530.041 459.672V536.161L504.345 551.035V474.5L530.041 459.672Z" fill="#383B18"/>
<path d="M478.603 459.672V536.161L504.345 551.035V474.5L478.603 459.672Z" fill="#54562C"/>
<path d="M478.603 459.672L504.345 444.844L530.041 459.672L504.345 474.5L478.603 459.672Z" fill="#616236"/>
<path d="M352.932 486.703V515.945L378.674 530.819V501.531L352.932 486.703Z" fill="#54562C"/>
<path d="M441.487 465.29V494.532L378.675 530.819V501.532L441.487 465.29Z" fill="#383B18"/>
<path d="M441.487 465.29L415.745 450.416L352.933 486.704L378.674 501.532L441.487 465.29Z" fill="#616236"/>
<path d="M352.932 432.503V488.224L378.674 503.098V447.331L352.932 432.503Z" fill="#54562C"/>
<path d="M404.371 432.503V488.224L378.675 503.098V447.331L404.371 432.503Z" fill="#383B18"/>
<path d="M404.371 432.503L378.629 417.675L352.933 432.503L378.675 447.331L404.371 432.503Z" fill="#616236"/>
<path d="M692.691 239.599C692.691 371.901 585.394 479.152 453.138 479.152C320.836 479.152 213.493 371.947 213.493 239.599C213.493 220.304 215.749 201.608 220.124 183.648C245.221 78.2855 340.085 0.00012207 453.092 0.00012207C471.005 0.00012207 488.505 1.93437 505.267 5.75653C612.518 29.5184 692.691 125.164 692.691 239.599Z" fill="#106335"/>
<path d="M638.26 200.641C638.26 316.273 544.502 410.077 428.824 410.077C313.1 410.077 219.388 316.319 219.388 200.641C219.388 194.884 219.618 189.22 220.124 183.648C245.222 78.2854 340.085 0 453.092 0C471.006 0 488.505 1.93425 505.267 5.75641C583.184 36.1495 638.26 111.948 638.26 200.641Z" fill="#258650"/>
<path d="M391.237 176.029C398.172 146.803 380.103 117.49 350.878 110.554C321.653 103.619 292.339 121.688 285.403 150.914C278.468 180.139 296.538 209.453 325.763 216.388C354.988 223.323 384.302 205.254 391.237 176.029Z" fill="#46BA79"/>
<path d="M467.597 368.447C467.597 433.885 414.548 486.888 349.156 486.888C283.719 486.888 230.669 433.885 230.669 368.447C230.669 358.915 231.774 349.659 233.939 340.771C246.372 288.689 293.251 249.96 349.156 249.96C357.998 249.96 366.655 250.927 374.944 252.815C427.948 264.558 467.597 311.852 467.597 368.447Z" fill="#106335"/>
<path d="M440.704 349.198C440.704 406.392 394.332 452.765 337.137 452.765C279.943 452.765 233.571 406.392 233.571 349.198C233.571 346.343 233.709 343.534 233.939 340.771C246.372 288.688 293.251 249.96 349.156 249.96C357.998 249.96 366.655 250.927 374.944 252.815C413.488 267.873 440.704 305.312 440.704 349.198Z" fill="#258650"/>
<path d="M319.27 330.87C319.27 345.698 307.251 357.763 292.377 357.763C277.549 357.763 265.484 345.744 265.484 330.87C265.484 316.042 277.503 303.977 292.377 303.977C307.251 303.977 319.27 316.042 319.27 330.87Z" fill="#46BA79"/>
<path d="M591.84 438.259C591.84 482.099 556.29 517.603 512.496 517.603C468.656 517.603 433.105 482.099 433.105 438.259C433.105 431.858 433.842 425.687 435.316 419.701C443.651 384.795 475.057 358.869 512.496 358.869C518.436 358.869 524.193 359.513 529.765 360.756C565.269 368.677 591.84 400.36 591.84 438.259Z" fill="#106335"/>
<path d="M573.834 425.365C573.834 463.679 542.751 494.716 504.483 494.716C466.169 494.716 435.131 463.633 435.131 425.365C435.131 423.477 435.223 421.589 435.362 419.747C443.697 384.841 475.103 358.915 512.542 358.915C518.482 358.915 524.238 359.559 529.81 360.803C555.599 370.888 573.834 395.985 573.834 425.365Z" fill="#258650"/>
<path d="M492.464 413.115C492.464 423.062 484.405 431.121 474.458 431.121C464.512 431.121 456.453 423.062 456.453 413.115C456.453 403.169 464.512 395.11 474.458 395.11C484.405 395.11 492.464 403.169 492.464 413.115Z" fill="#46BA79"/>
<path d="M888.994 785.197C910.554 797.647 910.678 817.95 889.242 830.399C867.744 842.89 832.786 842.849 811.205 830.399C789.563 817.908 789.459 797.688 810.958 785.197C832.394 772.748 867.352 772.686 888.994 785.197Z" fill="#AAB3C2"/>
<path d="M737.394 192.501L722.656 183.453L722.635 177.104L737.373 186.153L737.394 192.501Z" fill="#1A1A1F"/>
<path d="M737.373 186.153L722.636 177.104L731.396 172.034L746.133 181.082L737.373 186.153Z" fill="#4E4E5E"/>
<path d="M746.133 181.082L746.153 187.451L737.393 192.501L737.373 186.152L746.133 181.082Z" fill="#58595B"/>
<path d="M785.028 261.51C785.028 283.338 767.343 301.023 745.515 301.023C723.687 301.023 705.981 283.338 705.981 261.51C705.981 258.336 706.352 255.244 707.074 252.276C708.681 245.474 712.082 239.352 716.72 234.426C723.913 226.758 734.137 221.976 745.494 221.976C748.442 221.976 751.327 222.286 754.089 222.945C762.623 224.821 770.084 229.479 775.546 235.889C781.483 242.774 785.028 251.74 785.028 261.51Z" fill="#FFCF01"/>
<path d="M776.041 255.079C776.041 274.166 760.561 289.624 741.495 289.624C722.408 289.624 706.95 274.145 706.95 255.079C706.95 254.131 706.991 253.203 707.073 252.276C711.216 234.9 726.861 221.976 745.514 221.976C748.462 221.976 751.348 222.306 754.11 222.924C766.951 227.954 776.041 240.465 776.041 255.079Z" fill="#FFF200"/>
<path d="M733.189 264.416C733.189 269.363 729.17 273.382 724.223 273.382C719.276 273.382 715.257 269.363 715.257 264.416C715.257 259.469 719.276 255.45 724.223 255.45C729.17 255.45 733.189 259.448 733.189 264.416Z" fill="#FFFEE6"/>
<path d="M768.085 242.155C761.942 246.051 754.687 248.318 746.875 248.318C741.186 248.318 735.786 247.123 730.922 244.958C728.572 243.928 726.346 242.65 724.264 241.207C719.709 238.033 719.688 231.148 724.346 228.139C729.973 224.553 736.549 222.368 743.618 222.038C744.257 221.997 744.917 221.976 745.577 221.976C748.524 221.976 751.41 222.306 754.172 222.945C759.304 224.079 764.065 226.222 768.229 229.149C772.764 232.303 772.743 239.187 768.085 242.155Z" fill="#33333D"/>
<path d="M752.687 184.771L752.625 225.48L743.886 230.55L743.948 189.862L752.687 184.771Z" fill="#33333D"/>
<path d="M743.948 189.862L743.886 230.55L735.085 225.48L735.147 184.771L743.948 189.862Z" fill="#1A1A1F"/>
<path d="M752.688 184.772L743.949 189.863L735.147 184.772L743.887 179.702L752.688 184.772Z" fill="#4E4E5E"/>
<path d="M808.443 233.972L743.928 196.19L743.907 189.842L808.423 227.623L808.443 233.972Z" fill="#1A1A1F"/>
<path d="M808.423 227.623L743.907 189.842L752.667 184.771L817.183 222.553L808.423 227.623Z" fill="#4E4E5E"/>
<path d="M817.183 222.553L817.203 228.923L808.443 233.972L808.422 227.624L817.183 222.553Z" fill="#58595B"/>
<path d="M743.845 230.53C743.845 230.53 733.642 234.178 730.88 244.938C728.531 243.907 726.305 242.629 724.223 241.186C719.668 238.012 719.647 231.128 724.305 228.118C729.932 224.532 736.507 222.347 743.577 222.017L743.845 230.53Z" fill="#1A1A1F"/>
<path d="M817.141 222.512L817.08 350.306L808.34 355.377L808.402 227.603L817.141 222.512Z" fill="#33333D"/>
<path d="M808.402 227.603L808.34 355.377L799.539 350.306L799.601 222.512L808.402 227.603Z" fill="#1A1A1F"/>
<path d="M817.144 222.512L808.404 227.603L799.603 222.512L808.363 217.442L817.144 222.512Z" fill="#4E4E5E"/>
<path d="M852.8 350.306L809.906 324.995L809.886 318.626L852.779 343.937L852.8 350.306Z" fill="#1A1A1F"/>
<path d="M852.779 343.937L809.886 318.626L815.41 315.431L858.324 340.743L852.779 343.937Z" fill="#4E4E5E"/>
<path d="M858.324 340.743L858.344 347.112L852.799 350.306L852.779 343.937L858.324 340.743Z" fill="#58595B"/>
<path d="M852.8 316.214L809.906 290.903L809.886 284.534L852.779 309.845L852.8 316.214Z" fill="#1A1A1F"/>
<path d="M852.779 309.845L809.886 284.533L815.41 281.338L858.324 306.65L852.779 309.845Z" fill="#4E4E5E"/>
<path d="M858.324 306.65L858.344 313.019L852.799 316.214L852.779 309.845L858.324 306.65Z" fill="#58595B"/>
<path d="M875.35 673.461L875.37 804.449C875.37 808.201 872.897 811.89 868.053 814.755C861.56 818.507 852.409 819.764 844.081 818.61C839.794 818.012 835.651 816.672 832.291 814.755C827.283 811.828 824.809 808.098 824.809 804.284L824.83 673.399C824.83 677.088 827.365 680.881 832.271 683.705C834.909 685.251 838.063 686.343 841.361 687.064C850.347 688.981 860.798 687.889 868.012 683.705C872.917 680.901 875.35 677.15 875.35 673.461Z" fill="#33333D"/>
<path d="M867.93 663.01C877.803 668.719 877.865 678.015 868.054 683.725C858.201 689.455 842.186 689.434 832.292 683.725C822.378 677.995 822.316 668.74 832.168 663.01C841.98 657.3 858.016 657.28 867.93 663.01Z" fill="#4E4E5E"/>
<path d="M841.361 687.064L844.081 818.61C839.794 818.012 835.651 816.672 832.291 814.755C827.283 811.828 824.809 808.098 824.809 804.284L824.83 673.399C824.83 677.088 827.365 680.881 832.271 683.705C834.909 685.251 838.042 686.343 841.361 687.064Z" fill="#1A1A1F"/>
<path d="M862.158 226.635L861.087 673.46C861.087 674.944 860.097 676.408 858.18 677.541C855.604 679.025 851.997 679.52 848.719 679.066C847.029 678.819 845.38 678.304 844.061 677.541C842.082 676.387 841.093 674.903 841.093 673.398L842.186 226.635C842.186 228.098 843.195 229.603 845.133 230.716C846.184 231.334 847.421 231.767 848.719 232.035C852.265 232.798 856.408 232.365 859.252 230.716C861.19 229.582 862.158 228.098 862.158 226.635Z" fill="#33333D"/>
<path d="M859.232 222.512C863.911 225.212 863.024 229.932 856.552 231.829C853.646 232.674 850.534 232.653 847.648 231.767C841.361 229.788 840.516 225.192 845.113 222.512C848.967 220.245 855.295 220.245 859.232 222.512Z" fill="#4E4E5E"/>
<path d="M848.719 232.014V679.045C847.029 678.798 845.38 678.282 844.061 677.52C842.082 676.366 841.093 674.882 841.093 673.377L842.186 226.614C842.186 228.077 843.195 229.582 845.133 230.695C846.184 231.292 847.421 231.725 848.719 232.014Z" fill="#1A1A1F"/>
<path d="M894.683 374.484L851.79 349.173L851.769 342.804L894.663 368.115L894.683 374.484Z" fill="#1A1A1F"/>
<path d="M894.663 368.115L851.769 342.803L857.293 339.609L900.207 364.92L894.663 368.115Z" fill="#4E4E5E"/>
<path d="M900.208 364.92L900.228 371.289L894.684 374.484L894.663 368.115L900.208 364.92Z" fill="#58595B"/>
<path d="M894.683 338.269L851.79 312.958L851.769 306.609L894.663 331.921L894.683 338.269Z" fill="#1A1A1F"/>
<path d="M894.663 331.92L851.769 306.609L857.293 303.414L900.207 328.725L894.663 331.92Z" fill="#4E4E5E"/>
<path d="M900.208 328.726L900.228 335.075L894.684 338.27L894.663 331.921L900.208 328.726Z" fill="#58595B"/>
<path d="M902.247 271.651L902.185 399.424L893.425 404.516L893.508 276.722L902.247 271.651Z" fill="#33333D"/>
<path d="M893.508 276.722L893.426 404.516L884.645 399.424L884.707 271.651L893.508 276.722Z" fill="#1A1A1F"/>
<path d="M902.248 271.651L893.509 276.722L884.708 271.651L893.447 266.56L902.248 271.651Z" fill="#4E4E5E"/>
<path d="M949.201 315.801L884.707 278.019L884.686 271.65L949.181 309.432L949.201 315.801Z" fill="#1A1A1F"/>
<path d="M949.181 309.433L884.686 271.651L893.446 266.601L957.941 304.383L949.181 309.433Z" fill="#4E4E5E"/>
<path d="M957.941 304.383L957.962 310.731L949.202 315.802L949.181 309.432L957.941 304.383Z" fill="#58595B"/>
<path d="M999 386.192C999 408.02 981.294 425.705 959.487 425.705C937.659 425.705 919.953 408.02 919.953 386.192C919.953 383.018 920.324 379.926 921.046 376.958C922.653 370.156 926.054 364.034 930.692 359.108C937.886 351.44 948.109 346.658 959.466 346.658C962.414 346.658 965.3 346.988 968.062 347.627C976.595 349.503 984.056 354.161 989.518 360.571C995.455 367.456 999 376.401 999 386.192Z" fill="#FFCF01"/>
<path d="M990.033 379.761C990.033 398.847 974.574 414.306 955.488 414.306C936.401 414.306 920.942 398.827 920.942 379.761C920.942 378.813 920.984 377.885 921.066 376.957C925.209 359.582 940.853 346.658 959.507 346.658C962.455 346.658 965.34 346.988 968.102 347.606C980.944 352.635 990.033 365.126 990.033 379.761Z" fill="#FFF200"/>
<path d="M947.161 389.077C947.161 394.024 943.142 398.043 938.195 398.043C933.248 398.043 929.229 394.024 929.229 389.077C929.229 384.13 933.248 380.111 938.195 380.111C943.142 380.111 947.161 384.13 947.161 389.077Z" fill="#FFFEE6"/>
<path d="M982.057 366.837C975.915 370.733 968.659 373 960.847 373C955.158 373 949.758 371.805 944.894 369.64C942.544 368.61 940.318 367.332 938.236 365.889C933.681 362.715 933.66 355.83 938.319 352.821C943.946 349.234 950.521 347.05 957.591 346.72C958.23 346.679 958.889 346.658 959.549 346.658C962.496 346.658 965.382 346.988 968.144 347.627C973.276 348.76 978.038 350.904 982.201 353.831C986.736 356.985 986.715 363.848 982.057 366.837Z" fill="#33333D"/>
<path d="M966.68 309.453L966.598 350.141L957.858 355.232L957.92 314.544L966.68 309.453Z" fill="#33333D"/>
<path d="M957.92 314.544L957.858 355.232L949.057 350.141L949.14 309.453L957.92 314.544Z" fill="#1A1A1F"/>
<path d="M966.68 309.453L957.92 314.544L949.139 309.453L957.879 304.383L966.68 309.453Z" fill="#4E4E5E"/>
<path d="M957.838 355.212C957.838 355.212 947.635 358.86 944.873 369.62C942.523 368.589 940.297 367.311 938.215 365.868C933.66 362.694 933.64 355.81 938.298 352.8C943.925 349.214 950.5 347.029 957.57 346.699L957.838 355.212Z" fill="#1A1A1F"/>
<path d="M970.081 328.375L955.344 319.326L955.323 312.957L970.061 322.006L970.081 328.375Z" fill="#1A1A1F"/>
<path d="M970.061 322.006L955.323 312.957L964.084 307.907L978.821 316.956L970.061 322.006Z" fill="#4E4E5E"/>
<path d="M978.821 316.955L978.841 323.325L970.081 328.374L970.061 322.005L978.821 316.955Z" fill="#33333D"/>
<path d="M490.096 937.601L640.271 1024.3L851.029 902.808L700.681 816.018L490.096 937.601Z" fill="#AAB3C2"/>
<path d="M513.749 930.123L524.106 924.096L640.462 991.296L630.105 997.305L513.749 930.123Z" fill="#4E4E5E"/>
<path d="M528.093 793.186L538.451 787.177L538.222 869.313L527.864 875.322L528.093 793.186Z" fill="#33333D"/>
<path d="M518.422 787.615L528.78 781.588L538.451 787.177L528.093 793.185L518.422 787.615Z" fill="#4E4E5E"/>
<path d="M639.986 940.061L650.344 934.052L650.096 1007.97L639.738 1013.99L639.986 940.061Z" fill="#33333D"/>
<path d="M527.864 875.321L538.222 869.312L650.343 934.052L639.986 940.061L527.864 875.321Z" fill="#4E4E5E"/>
<path d="M528.093 793.185L527.864 875.321L639.986 940.061L639.738 1013.99L513.711 941.224L513.749 930.123L630.105 997.304L630.296 945.592L518.155 880.853L518.422 787.615L528.093 793.185Z" fill="#1A1A1F"/>
<path d="M687.291 829.923L697.648 823.915L814.024 891.096L803.647 897.124L687.291 829.923Z" fill="#4E4E5E"/>
<path d="M701.635 693.004L711.993 686.976L711.764 769.112L701.406 775.14L701.635 693.004Z" fill="#33333D"/>
<path d="M691.964 687.415L702.322 681.388L711.993 686.977L701.635 693.004L691.964 687.415Z" fill="#4E4E5E"/>
<path d="M813.528 839.88L823.885 833.852L823.637 907.767L813.28 913.795L813.528 839.88Z" fill="#33333D"/>
<path d="M701.406 775.14L711.764 769.113L823.885 833.852L813.528 839.88L701.406 775.14Z" fill="#4E4E5E"/>
<path d="M701.635 693.004L701.406 775.14L813.528 839.88L813.28 913.795L687.253 841.025L687.291 829.923L803.647 897.124L803.838 845.393L691.697 780.653L691.964 687.415L701.635 693.004Z" fill="#1A1A1F"/>
<path d="M550.315 878.106L575.589 892.698L760.423 786.147L734.997 771.459L550.315 878.106Z" fill="#FACE4C"/>
<path d="M760.424 786.147L575.589 892.622V904.735L760.29 798.107L760.424 786.147Z" fill="#A84A03"/>
<path d="M575.589 904.735L550.314 890.123V878.106L575.589 892.717V904.735Z" fill="#D6650F"/>
<path d="M581.998 896.399L607.291 910.991L792.106 804.44L766.68 789.771L581.998 896.399Z" fill="#FACE4C"/>
<path d="M792.107 804.439L607.291 910.914V923.027L791.973 816.399L792.107 804.439Z" fill="#A84A03"/>
<path d="M607.291 923.027L581.998 908.435V896.398L607.291 911.01V923.027Z" fill="#D6650F"/>
<path d="M613.681 914.692L638.974 929.284L823.809 822.732L798.382 808.063L613.681 914.692Z" fill="#FACE4C"/>
<path d="M823.809 822.731L638.974 929.207V941.319L823.656 834.691L823.809 822.731Z" fill="#EFA123"/>
<path d="M638.974 941.319L613.681 926.727V914.691L638.974 929.302V941.319Z" fill="#D6650F"/>
<path d="M722.025 733.92V763.123L538.106 869.465V840.109L722.025 733.92Z" fill="#EFA123"/>
<path d="M527.463 833.968L527.482 863.171L538.107 869.466V840.11L527.463 833.968Z" fill="#D6650F"/>
<path d="M527.463 833.967L711.535 727.873L722.026 733.92L538.107 840.109L527.463 833.967Z" fill="#A84A03"/>
<path d="M722.025 697.22V726.405L538.106 832.766V803.39L722.025 697.22Z" fill="#EFA123"/>
<path d="M527.463 797.249L527.482 826.452L538.107 832.766V803.391L527.463 797.249Z" fill="#D6650F"/>
<path d="M527.463 797.248L711.535 691.154L722.026 697.22L538.107 803.39L527.463 797.248Z" fill="#FACE4C"/>
</g>
<defs>
<filter id="filter0_f" x="0" y="39.4977" width="1067.9" height="1067.9" filterUnits="userSpaceOnUse" color-interpolation-filters="sRGB">
<feFlood flood-opacity="0" result="BackgroundImageFix"/>
<feBlend mode="normal" in="SourceGraphic" in2="BackgroundImageFix" result="shape"/>
<feGaussianBlur stdDeviation="100" result="effect1_foregroundBlur"/>
</filter>
</defs>
</svg>
