<svg width="17" height="15" viewBox="0 0 17 15" fill="none" xmlns="http://www.w3.org/2000/svg">
<path fill-rule="evenodd" clip-rule="evenodd" d="M0.786585 1.80639C0.99992 1.50627 1.28178 1.2614 1.60876 1.09211C1.93574 0.922812 2.29839 0.833986 2.66659 0.833008H14.6666C15.4466 0.833008 16.1274 1.22469 16.5466 1.80639C16.8324 2.20474 16.9999 2.6956 16.9999 3.22229V11.7777C16.9999 13.0686 15.9833 14.167 14.6666 14.167H2.66659C1.34992 14.167 0.333252 13.0686 0.333252 11.7777V3.22229C0.333252 2.6956 0.499919 2.20474 0.786585 1.80555V1.80639ZM2.77742 2.49976L8.04992 8.3042C8.12803 8.39014 8.22323 8.4588 8.32942 8.50579C8.43562 8.55277 8.55046 8.57705 8.66659 8.57705C8.78271 8.57705 8.89755 8.55277 9.00375 8.50579C9.10994 8.4588 9.20515 8.39014 9.28325 8.3042L14.5558 2.49976H2.77742ZM15.3333 4.12317L10.5166 9.42509C10.2823 9.6829 9.99666 9.88889 9.67807 10.0298C9.35949 10.1708 9.01496 10.2436 8.66659 10.2436C8.31821 10.2436 7.97369 10.1708 7.6551 10.0298C7.33651 9.88889 7.0509 9.6829 6.81659 9.42509L1.99992 4.12317V11.7777C1.99992 12.2061 2.32659 12.5002 2.66659 12.5002H14.6666C15.0066 12.5002 15.3333 12.2061 15.3333 11.7777V4.12317Z" fill="#FFB800"/>
</svg>
