<svg width="32" height="32" viewBox="0 0 32 32" fill="none" xmlns="http://www.w3.org/2000/svg">
<path fill-rule="evenodd" clip-rule="evenodd" d="M12.9426 4.39087C13.1926 4.64091 13.333 4.97998 13.333 5.33354C13.333 5.68709 13.1926 6.02617 12.9426 6.2762L8.55196 10.6669H16C18.8289 10.6669 21.542 11.7907 23.5424 13.7911C25.5428 15.7915 26.6666 18.5046 26.6666 21.3335V26.6669C26.6666 27.0205 26.5262 27.3596 26.2761 27.6097C26.0261 27.8597 25.6869 28.0002 25.3333 28.0002C24.9797 28.0002 24.6405 27.8597 24.3905 27.6097C24.1404 27.3596 24 27.0205 24 26.6669V21.3335C24 19.2118 23.1571 17.177 21.6568 15.6767C20.1565 14.1764 18.1217 13.3335 16 13.3335H8.55196L12.9426 17.7242C13.1855 17.9757 13.3199 18.3125 13.3169 18.6621C13.3138 19.0117 13.1736 19.3461 12.9264 19.5933C12.6792 19.8405 12.3448 19.9807 11.9952 19.9838C11.6456 19.9868 11.3088 19.8524 11.0573 19.6095L4.39063 12.9429C4.14066 12.6928 4.00024 12.3538 4.00024 12.0002C4.00024 11.6467 4.14066 11.3076 4.39063 11.0575L11.0573 4.39087C11.3073 4.14091 11.6464 4.00049 12 4.00049C12.3535 4.00049 12.6926 4.14091 12.9426 4.39087Z" fill="black"/>
</svg>
