<svg width="25" height="25" viewBox="0 0 25 25" fill="none" xmlns="http://www.w3.org/2000/svg">
<path d="M22 4H2V17H7V21L12 16.5H22V4Z" fill="#FFBB00" stroke="#FFBB00"/>
<path fill-rule="evenodd" clip-rule="evenodd" d="M0.505859 4.5C0.505859 3.39543 1.40129 2.5 2.50586 2.5H21.5059C22.6104 2.5 23.5059 3.39543 23.5059 4.5V16.5C23.5059 17.6046 22.6104 18.5 21.5059 18.5H11.8896L7.17482 22.7433L5.50586 24.2454V22V18.5H2.50586C1.40129 18.5 0.505859 17.6046 0.505859 16.5V4.5ZM21.5059 4.5L2.50586 4.5V16.5H6.50586H7.50586V17.5V19.7546L10.8369 16.7567L11.1221 16.5H11.5059H21.5059V4.5ZM7.00586 11C7.282 11 7.50586 10.7761 7.50586 10.5C7.50586 10.2239 7.282 10 7.00586 10C6.72972 10 6.50586 10.2239 6.50586 10.5C6.50586 10.7761 6.72972 11 7.00586 11ZM5.50586 10.5C5.50586 9.67157 6.17743 9 7.00586 9C7.83429 9 8.50586 9.67157 8.50586 10.5C8.50586 11.3284 7.83429 12 7.00586 12C6.17743 12 5.50586 11.3284 5.50586 10.5ZM12.0059 11C12.282 11 12.5059 10.7761 12.5059 10.5C12.5059 10.2239 12.282 10 12.0059 10C11.7297 10 11.5059 10.2239 11.5059 10.5C11.5059 10.7761 11.7297 11 12.0059 11ZM10.5059 10.5C10.5059 9.67157 11.1774 9 12.0059 9C12.8343 9 13.5059 9.67157 13.5059 10.5C13.5059 11.3284 12.8343 12 12.0059 12C11.1774 12 10.5059 11.3284 10.5059 10.5ZM17.0059 11C17.282 11 17.5059 10.7761 17.5059 10.5C17.5059 10.2239 17.282 10 17.0059 10C16.7297 10 16.5059 10.2239 16.5059 10.5C16.5059 10.7761 16.7297 11 17.0059 11ZM15.5059 10.5C15.5059 9.67157 16.1774 9 17.0059 9C17.8343 9 18.5059 9.67157 18.5059 10.5C18.5059 11.3284 17.8343 12 17.0059 12C16.1774 12 15.5059 11.3284 15.5059 10.5Z" fill="white"/>
</svg>
