<svg width="31" height="17" viewBox="0 0 31 17" fill="none" xmlns="http://www.w3.org/2000/svg">
<g clip-path="url(#clip0)">
<path d="M11 9C11 9.66304 10.7366 10.2989 10.2678 10.7678C9.79893 11.2366 9.16304 11.5 8.5 11.5C7.83696 11.5 7.20107 11.2366 6.73223 10.7678C6.26339 10.2989 6 9.66304 6 9C6 8.33696 6.26339 7.70107 6.73223 7.23223C7.20107 6.76339 7.83696 6.5 8.5 6.5C9.16304 6.5 9.79893 6.76339 10.2678 7.23223C10.7366 7.70107 11 8.33696 11 9Z" fill="white"/>
<path d="M2.5 4.5C1.96957 4.5 1.46086 4.71071 1.08579 5.08579C0.710714 5.46086 0.5 5.96957 0.5 6.5L0.5 12.5C0.5 13.0304 0.710714 13.5391 1.08579 13.9142C1.46086 14.2893 1.96957 14.5 2.5 14.5H14.5C15.0304 14.5 15.5391 14.2893 15.9142 13.9142C16.2893 13.5391 16.5 13.0304 16.5 12.5V6.5C16.5 5.96957 16.2893 5.46086 15.9142 5.08579C15.5391 4.71071 15.0304 4.5 14.5 4.5H13.328C12.7976 4.49989 12.289 4.2891 11.914 3.914L11.086 3.086C10.711 2.7109 10.2024 2.50011 9.672 2.5H7.328C6.79761 2.50011 6.28899 2.7109 5.914 3.086L5.086 3.914C4.71101 4.2891 4.20239 4.49989 3.672 4.5H2.5ZM3 6.5C2.86739 6.5 2.74021 6.44732 2.64645 6.35355C2.55268 6.25979 2.5 6.13261 2.5 6C2.5 5.86739 2.55268 5.74021 2.64645 5.64645C2.74021 5.55268 2.86739 5.5 3 5.5C3.13261 5.5 3.25979 5.55268 3.35355 5.64645C3.44732 5.74021 3.5 5.86739 3.5 6C3.5 6.13261 3.44732 6.25979 3.35355 6.35355C3.25979 6.44732 3.13261 6.5 3 6.5ZM12 9C12 9.92826 11.6313 10.8185 10.9749 11.4749C10.3185 12.1313 9.42826 12.5 8.5 12.5C7.57174 12.5 6.6815 12.1313 6.02513 11.4749C5.36875 10.8185 5 9.92826 5 9C5 8.07174 5.36875 7.1815 6.02513 6.52513C6.6815 5.86875 7.57174 5.5 8.5 5.5C9.42826 5.5 10.3185 5.86875 10.9749 6.52513C11.6313 7.1815 12 8.07174 12 9Z" fill="white"/>
</g>
<path d="M25.5 3.5V13.5" stroke="white"/>
<path d="M20.5 8.5L30.5 8.5" stroke="white"/>
<defs>
<clipPath id="clip0">
<rect width="16" height="16" fill="white" transform="translate(0.5 0.5)"/>
</clipPath>
</defs>
</svg>
